<svg width="256" height="256" viewBox="0 0 256 256" fill="none" xmlns="http://www.w3.org/2000/svg">
<path d="M225.07 55.8801L141.5 7.64012C133.08 2.78012 122.63 2.78012 114.21 7.64012L30.65 55.8801C22.23 60.7501 17 69.8101 17 79.5201V176.02C17 185.73 22.23 194.79 30.65 199.65L114.21 247.89C118.42 250.32 123.14 251.54 127.86 251.54C132.58 251.54 137.29 250.32 141.5 247.89L225.07 199.65C233.48 194.79 238.71 185.74 238.71 176.02V79.5201C238.71 69.8101 233.48 60.7501 225.07 55.8901V55.8801ZM122.21 21.5001C123.95 20.5001 125.9 20.0001 127.86 20.0001C129.82 20.0001 131.76 20.5001 133.5 21.5001L210.94 66.2201C212.61 67.1901 212.61 69.6001 210.94 70.5701L189.49 82.9501C188.59 83.4701 187.46 83.3801 186.65 82.7201C185.51 81.7901 184.29 80.9401 182.99 80.1901L141.49 56.2301C137.28 53.8001 132.56 52.5901 127.85 52.5901C123.14 52.5901 118.41 53.8001 114.2 56.2301L72.7 80.1901C71.41 80.9401 70.19 81.7901 69.05 82.7201C68.25 83.3801 67.12 83.4701 66.21 82.9501L44.76 70.5701C43.09 69.6001 43.09 67.1901 44.76 66.2201L122.21 21.5001ZM119.86 228.33C119.86 230.26 117.77 231.47 116.09 230.5L38.65 185.78C35.17 183.77 33 180.03 33 176.01V86.5801C33 84.6501 35.09 83.4401 36.77 84.4101L58.22 96.8001C59.12 97.3201 59.61 98.3401 59.44 99.3701C59.2 100.82 59.07 102.3 59.07 103.8V151.72C59.07 161.44 64.3 170.49 72.71 175.35L114.21 199.31C115.51 200.06 116.86 200.7 118.24 201.22C119.21 201.59 119.86 202.52 119.86 203.56V228.33ZM127.85 186.97C125.9 186.97 123.95 186.47 122.21 185.47L80.71 161.51C77.23 159.5 75.07 155.75 75.07 151.73V103.81C75.07 99.7901 77.23 96.0501 80.71 94.0401L122.21 70.0801C123.95 69.0701 125.9 68.5701 127.86 68.5701C129.82 68.5701 131.76 69.0701 133.5 70.0801L175 94.0401C178.48 96.0501 180.64 99.7901 180.64 103.81V151.73C180.64 155.75 178.48 159.5 175 161.51L133.5 185.47C131.76 186.47 129.81 186.97 127.85 186.97ZM222.71 176.02C222.71 180.04 220.54 183.78 217.07 185.79L139.63 230.51C137.96 231.48 135.86 230.27 135.86 228.34V203.57C135.86 202.53 136.5 201.6 137.47 201.23C138.85 200.71 140.19 200.07 141.5 199.32L183 175.36C191.41 170.5 196.64 161.45 196.64 151.73V103.81C196.64 102.31 196.52 100.83 196.27 99.3801C196.1 98.3501 196.58 97.3301 197.49 96.8101L218.94 84.4301C220.61 83.4601 222.71 84.6701 222.71 86.6001V176.02Z" fill="white"/>
<path d="M168.64 111.54C168.64 112.73 168 113.84 166.97 114.43L139.34 130.38C137.19 131.62 135.86 133.92 135.86 136.4V168.32C135.86 169.51 135.22 170.62 134.19 171.21L129.53 173.89C128.5 174.49 127.22 174.48 126.19 173.89L121.53 171.2C120.5 170.6 119.86 169.5 119.86 168.31V136.39C119.86 133.91 118.53 131.61 116.38 130.37L88.74 114.41C87.71 113.81 87.07 112.71 87.07 111.52V106.14C87.07 104.95 87.71 103.84 88.74 103.25L93.41 100.56C94.44 99.9601 95.72 99.9601 96.75 100.56L124.38 116.52C126.53 117.76 129.18 117.76 131.34 116.52L158.97 100.57C160 99.9701 161.28 99.9701 162.31 100.57L166.97 103.25C168.01 103.85 168.64 104.95 168.64 106.14V111.54Z" fill="white"/>
</svg>
