<svg width="380" height="380" viewBox="0 0 380 380" fill="none" xmlns="http://www.w3.org/2000/svg">
<rect width="380" height="380" fill="url(#paint0_linear_1542_1358)"/>
<rect width="380" height="380" fill="url(#paint1_linear_1542_1358)"/>
<path d="M301.069 108.623L204.442 52.8457C195.434 47.6426 184.23 47.6426 175.212 52.8457L78.5837 108.623C69.565 113.826 63.9688 123.527 63.9688 133.934V245.512C63.9688 255.918 69.5766 265.619 78.5837 270.834L175.212 326.611C179.721 329.224 184.774 330.519 189.827 330.519C194.879 330.519 199.944 329.224 204.442 326.611L301.069 270.834C310.088 265.619 315.684 255.929 315.684 245.512V133.934C315.684 123.527 310.088 113.826 301.069 108.623ZM89.0016 118.636L182.149 64.8591C186.89 62.1304 192.775 62.1304 197.504 64.8591L290.663 118.648C292.536 119.735 292.536 122.44 290.663 123.516L260.762 140.767C259.699 141.38 258.369 141.229 257.467 140.409C255.941 139.009 254.253 137.772 252.437 136.72L204.442 109.005C195.434 103.802 184.23 103.802 175.212 109.005L127.227 136.72C125.4 137.772 123.712 139.009 122.186 140.409C121.284 141.229 119.954 141.38 118.891 140.767L89.0131 123.504C87.14 122.417 87.14 119.712 89.0131 118.636H89.0016ZM182.149 258.45L134.165 230.746C129.424 228.006 126.487 222.919 126.487 217.449V162.03C126.487 156.561 129.424 151.462 134.165 148.734L182.149 121.03C186.89 118.289 192.775 118.289 197.504 121.03L245.5 148.734C250.229 151.462 253.177 156.561 253.177 162.03V217.449C253.177 222.919 250.229 228.006 245.5 230.746L197.504 258.45C192.775 261.179 186.89 261.19 182.149 258.45ZM85.5212 258.82C80.7922 256.091 77.8437 250.992 77.8437 245.523V138.778C77.8437 136.258 80.5725 134.674 82.7578 135.934L111.942 152.792C113.005 153.405 113.537 154.63 113.271 155.821C112.832 157.845 112.601 159.914 112.601 162.019V217.438C112.601 227.844 118.197 237.545 127.216 242.748L175.2 270.452C177.038 271.504 178.958 272.348 180.935 272.973C182.103 273.343 182.889 274.418 182.889 275.644V310.158C182.889 312.32 180.542 313.673 178.669 312.597L85.5097 258.809L85.5212 258.82ZM301.809 245.523C301.809 250.992 298.872 256.091 294.132 258.82L200.996 312.597C199.123 313.684 196.776 312.331 196.776 310.158V275.655C196.776 274.429 197.573 273.354 198.741 272.984C200.707 272.36 202.626 271.516 204.442 270.464L252.437 242.76C261.445 237.557 267.052 227.856 267.052 217.449V162.03C267.052 159.926 266.821 157.845 266.382 155.833C266.116 154.642 266.659 153.416 267.712 152.804L296.895 135.957C299.081 134.697 301.809 136.269 301.809 138.79V245.535V245.523Z" fill="url(#paint2_linear_1542_1358)"/>
<path d="M189.653 245.546C185.837 245.442 182.901 242.101 182.901 238.285V193.746C182.901 193.746 182.901 193.723 182.889 193.723L144.039 171.304C140.721 169.384 139.587 165.141 141.495 161.822C143.415 158.504 147.658 157.371 150.977 159.279L189.838 181.698C189.838 181.698 189.861 181.698 189.873 181.698L228.723 159.279C232.469 157.116 237.395 158.851 238.817 163.21C239.834 166.343 238.32 169.766 235.452 171.408L196.81 193.712C196.81 193.712 196.799 193.723 196.799 193.735V238.597C196.799 242.494 193.596 245.639 189.676 245.535L189.653 245.546Z" fill="url(#paint3_linear_1542_1358)"/>
<defs>
<linearGradient id="paint0_linear_1542_1358" x1="114.158" y1="-138.7" x2="488.607" y2="491.642" gradientUnits="userSpaceOnUse">
<stop stop-color="#6AEEE6"/>
<stop offset="1" stop-color="#8310B9"/>
</linearGradient>
<linearGradient id="paint1_linear_1542_1358" x1="0" y1="0" x2="453.23" y2="136.058" gradientUnits="userSpaceOnUse">
<stop stop-color="#10232E"/>
<stop offset="1" stop-color="#200F2E"/>
</linearGradient>
<linearGradient id="paint2_linear_1542_1358" x1="63.9688" y1="48.9518" x2="310.73" y2="335.461" gradientUnits="userSpaceOnUse">
<stop stop-color="#F1EBFF"/>
<stop offset="1" stop-color="#5A04C8"/>
</linearGradient>
<linearGradient id="paint3_linear_1542_1358" x1="63.9688" y1="48.9518" x2="310.73" y2="335.461" gradientUnits="userSpaceOnUse">
<stop stop-color="#F1EBFF"/>
<stop offset="1" stop-color="#5A04C8"/>
</linearGradient>
</defs>
</svg>
