<svg width="380" height="380" viewBox="0 0 380 380" fill="none" xmlns="http://www.w3.org/2000/svg">
<rect width="380" height="380" fill="url(#paint0_linear_1542_1358)"/>
<rect width="380" height="380" fill="url(#paint1_linear_1542_1358)"/>
<path d="M183.594 45.9774L67.8884 112.786C64.0381 115.017 61.6562 119.122 61.6562 123.573V257.178C61.6562 261.63 64.0266 265.746 67.8884 267.966L183.594 334.774C187.445 337.006 192.197 337.006 196.059 334.774L311.765 267.966C315.615 265.734 317.997 261.63 317.997 257.178V123.573C317.997 119.122 315.627 115.006 311.765 112.786L196.059 45.9774C192.208 43.7458 187.456 43.7458 183.594 45.9774ZM193.492 65.8533L284.547 118.428C287.079 119.896 287.079 123.55 284.547 125.019L263.988 136.893C261.583 138.281 258.635 138.281 256.23 136.893L196.059 102.148C192.197 99.9164 187.456 99.9164 183.594 102.148L123.423 136.893C121.018 138.281 118.07 138.281 115.665 136.893L95.1066 125.019C92.5744 123.55 92.5744 119.896 95.1066 118.428L186.161 65.8533C188.427 64.5468 191.226 64.5468 193.492 65.8533ZM174.876 308.377L83.8216 255.814C81.5553 254.507 80.1562 252.079 80.1562 249.466V144.34C80.1562 141.414 83.3244 139.587 85.8566 141.044L106.415 152.919C108.82 154.306 110.288 156.862 110.288 159.637V229.116C110.288 233.567 112.658 237.684 116.52 239.904L176.692 274.649C179.085 276.036 180.565 278.592 180.565 281.367V305.093C180.565 308.018 177.397 309.845 174.865 308.388L174.876 308.377ZM132.465 227.74C130.199 226.433 128.8 224.005 128.8 221.392V159.371C128.8 156.758 130.199 154.33 132.465 153.023L186.161 122.024C188.427 120.717 191.226 120.717 193.492 122.024L247.2 153.023C249.466 154.33 250.865 156.758 250.865 159.371V221.392C250.865 224.017 249.466 226.433 247.2 227.74L193.492 258.739C191.226 260.046 188.427 260.046 186.161 258.739L132.465 227.74ZM295.832 255.814L204.777 308.377C202.245 309.845 199.077 308.007 199.077 305.081V281.355C199.077 278.58 200.557 276.025 202.95 274.637L263.133 239.892C266.983 237.661 269.365 233.556 269.365 229.104V159.625C269.365 156.85 270.845 154.295 273.238 152.907L293.785 141.044C296.317 139.576 299.485 141.414 299.485 144.34V249.477C299.485 252.091 298.086 254.519 295.82 255.825L295.832 255.814Z" fill="url(#paint2_linear_1542_1358)"/>
<path d="M236.99 171.326C236.99 172.887 236.157 174.321 234.816 175.096L204.58 192.544C201.169 194.509 199.077 198.14 199.077 202.071V236.978C199.077 238.539 198.244 239.973 196.891 240.748L192 243.569C190.659 244.344 188.994 244.344 187.653 243.569L182.762 240.748C181.409 239.973 180.577 238.528 180.577 236.978V202.071C180.577 198.14 178.484 194.509 175.073 192.544L144.848 175.096C143.496 174.321 142.675 172.876 142.675 171.326V165.661C142.675 164.1 143.507 162.666 144.848 161.891L149.739 159.07C151.092 158.296 152.746 158.296 154.098 159.07L184.323 176.518C187.722 178.484 191.919 178.484 195.33 176.518L225.566 159.07C226.919 158.296 228.572 158.296 229.925 159.07L234.816 161.891C236.169 162.666 236.99 164.111 236.99 165.661V171.326Z" fill="url(#paint3_linear_1542_1358)"/>
<defs>
<linearGradient id="paint0_linear_1542_1358" x1="114.158" y1="-138.7" x2="488.607" y2="491.642" gradientUnits="userSpaceOnUse">
<stop stop-color="#6AEEE6"/>
<stop offset="1" stop-color="#8310B9"/>
</linearGradient>
<linearGradient id="paint1_linear_1542_1358" x1="27.3125" y1="-50.5" x2="473.485" y2="232.364" gradientUnits="userSpaceOnUse">
<stop stop-color="#012D3A"/>
<stop offset="1" stop-color="#270344"/>
</linearGradient>
<linearGradient id="paint2_linear_1542_1358" x1="61.6563" y1="44.3125" x2="318.344" y2="336.844" gradientUnits="userSpaceOnUse">
<stop stop-color="#F1EBFF"/>
<stop offset="1" stop-color="#5A04C8"/>
</linearGradient>
<linearGradient id="paint3_linear_1542_1358" x1="61.6563" y1="44.3125" x2="318.344" y2="336.844" gradientUnits="userSpaceOnUse">
<stop stop-color="#F1EBFF"/>
<stop offset="1" stop-color="#5A04C8"/>
</linearGradient>
</defs>
</svg>
