<svg width="380" height="380" viewBox="0 0 380 380" fill="none" xmlns="http://www.w3.org/2000/svg">
<rect width="380" height="380" fill="url(#paint0_linear_1542_1358)"/>
<rect width="380" height="380" fill="url(#paint1_linear_1542_1358)"/>
<path d="M302.237 106.611L205.609 50.8337C195.874 45.2143 183.791 45.2143 174.055 50.8337L77.4391 106.611C67.7034 112.242 61.6562 122.718 61.6562 133.945V245.523C61.6562 256.75 67.7034 267.226 77.4391 272.845L174.055 328.623C178.923 331.432 184.381 332.843 189.838 332.843C195.296 332.843 200.742 331.432 205.609 328.623L302.237 272.845C311.961 267.226 318.008 256.762 318.008 245.523V133.945C318.008 122.718 311.961 112.242 302.237 106.623V106.611ZM183.305 66.8593C185.317 65.703 187.572 65.1249 189.838 65.1249C192.104 65.1249 194.347 65.703 196.359 66.8593L285.899 118.567C287.83 119.688 287.83 122.475 285.899 123.596L261.098 137.911C260.057 138.512 258.751 138.408 257.814 137.645C256.496 136.57 255.085 135.587 253.582 134.72L205.598 107.016C200.73 104.206 195.272 102.807 189.827 102.807C184.381 102.807 178.912 104.206 174.044 107.016L126.059 134.72C124.568 135.587 123.157 136.57 121.839 137.645C120.914 138.408 119.607 138.512 118.555 137.911L93.7538 123.596C91.8228 122.475 91.8228 119.688 93.7538 118.567L183.305 66.8593ZM180.588 306.006C180.588 308.238 178.172 309.637 176.229 308.516L86.6891 256.808C82.6653 254.484 80.1562 250.16 80.1562 245.511V142.108C80.1562 139.876 82.5728 138.477 84.5153 139.599L109.317 153.925C110.358 154.526 110.924 155.706 110.727 156.896C110.45 158.573 110.3 160.284 110.3 162.019V217.426C110.3 228.665 116.347 239.129 126.071 244.748L174.055 272.452C175.558 273.319 177.119 274.059 178.715 274.661C179.837 275.088 180.588 276.164 180.588 277.366V306.006ZM189.827 258.184C187.572 258.184 185.317 257.606 183.305 256.45L135.321 228.746C131.297 226.422 128.8 222.086 128.8 217.438V162.03C128.8 157.382 131.297 153.058 135.321 150.734L183.305 123.03C185.317 121.862 187.572 121.284 189.838 121.284C192.104 121.284 194.347 121.862 196.359 123.03L244.344 150.734C248.368 153.058 250.865 157.382 250.865 162.03V217.438C250.865 222.086 248.368 226.422 244.344 228.746L196.359 256.45C194.347 257.606 192.093 258.184 189.827 258.184ZM299.508 245.523C299.508 250.171 296.999 254.496 292.987 256.82L203.447 308.527C201.516 309.649 199.088 308.25 199.088 306.018V277.378C199.088 276.175 199.828 275.1 200.95 274.672C202.545 274.071 204.095 273.331 205.609 272.464L253.594 244.76C263.318 239.141 269.365 228.676 269.365 217.438V162.03C269.365 160.296 269.226 158.585 268.937 156.908C268.741 155.717 269.296 154.538 270.348 153.936L295.149 139.622C297.08 138.501 299.508 139.9 299.508 142.131V245.523Z" fill="url(#paint2_linear_1542_1358)"/>
<path d="M236.99 170.968C236.99 172.344 236.25 173.627 235.059 174.31L203.112 192.752C200.626 194.186 199.088 196.845 199.088 199.712V236.62C199.088 237.996 198.348 239.279 197.157 239.961L191.769 243.06C190.578 243.754 189.098 243.742 187.907 243.06L182.519 239.95C181.328 239.256 180.588 237.984 180.588 236.608V199.701C180.588 196.833 179.05 194.174 176.564 192.74L144.606 174.286C143.415 173.593 142.675 172.321 142.675 170.945V164.724C142.675 163.348 143.415 162.065 144.606 161.383L150.005 158.272C151.196 157.579 152.676 157.579 153.867 158.272L185.814 176.726C188.3 178.16 191.364 178.16 193.862 176.726L225.809 158.284C227 157.59 228.48 157.59 229.671 158.284L235.059 161.383C236.262 162.076 236.99 163.348 236.99 164.724V170.968Z" fill="url(#paint3_linear_1542_1358)"/>
<defs>
<linearGradient id="paint0_linear_1542_1358" x1="114.158" y1="-138.7" x2="488.607" y2="491.642" gradientUnits="userSpaceOnUse">
<stop stop-color="#6AEEE6"/>
<stop offset="1" stop-color="#8310B9"/>
</linearGradient>
<linearGradient id="paint1_linear_1542_1358" x1="27.3125" y1="-50.5" x2="473.485" y2="232.364" gradientUnits="userSpaceOnUse">
<stop stop-color="#012D3A"/>
<stop offset="1" stop-color="#270344"/>
</linearGradient>
<linearGradient id="paint2_linear_1542_1358" x1="61.6563" y1="46.6277" x2="312.421" y2="338.333" gradientUnits="userSpaceOnUse">
<stop stop-color="#F1EBFF"/>
<stop offset="1" stop-color="#5A04C8"/>
</linearGradient>
<linearGradient id="paint3_linear_1542_1358" x1="61.6563" y1="46.6277" x2="312.421" y2="338.333" gradientUnits="userSpaceOnUse">
<stop stop-color="#F1EBFF"/>
<stop offset="1" stop-color="#5A04C8"/>
</linearGradient>
</defs>
</svg>
