<svg width="700" height="700" viewBox="0 0 700 700" fill="none" xmlns="http://www.w3.org/2000/svg">
<g clip-path="url(#clip0_1449_1323)">
<rect width="700" height="700" fill="url(#paint0_linear_1449_1323)"/>
<rect width="700" height="700" fill="black" fill-opacity="0.4"/>
<g filter="url(#filter0_d_1449_1323)">
<path fill-rule="evenodd" clip-rule="evenodd" d="M565.989 117.993C570.39 117.993 573.949 121.606 573.711 126C570.76 180.566 547.867 232.19 509.328 270.729C470.79 309.268 419.517 331.81 365.581 334.132C361.222 334.319 357.667 330.775 357.667 326.411V125.86C357.667 121.515 361.189 117.993 365.533 117.993H565.989Z" fill="url(#paint1_linear_1449_1323)"/>
<path d="M210.167 334.327C269.906 334.327 318.333 285.899 318.333 226.16C318.333 166.421 269.906 117.993 210.167 117.993C150.428 117.993 102 166.421 102 226.16C102 285.899 150.428 334.327 210.167 334.327Z" fill="url(#paint2_linear_1449_1323)"/>
<path fill-rule="evenodd" clip-rule="evenodd" d="M573.707 581.985C573.948 586.379 570.389 589.993 565.988 589.993L331.117 589.993C274.067 588.954 206.86 565.828 166.513 525.481C128.057 487.025 105.246 435.783 102.291 381.667C102.052 377.273 105.611 373.66 110.011 373.66H355.012C412.524 374.015 467.619 396.838 508.535 437.257C547.546 475.796 570.72 527.42 573.707 581.985Z" fill="url(#paint3_linear_1449_1323)"/>
</g>
</g>
<defs>
<filter id="filter0_d_1449_1323" x="-276.205" y="-254.161" width="1228.41" height="1228.42" filterUnits="userSpaceOnUse" color-interpolation-filters="sRGB">
<feFlood flood-opacity="0" result="BackgroundImageFix"/>
<feColorMatrix in="SourceAlpha" type="matrix" values="0 0 0 0 0 0 0 0 0 0 0 0 0 0 0 0 0 0 127 0" result="hardAlpha"/>
<feOffset dy="6.05128"/>
<feGaussianBlur stdDeviation="189.103"/>
<feComposite in2="hardAlpha" operator="out"/>
<feColorMatrix type="matrix" values="0 0 0 0 0.151001 0 0 0 0 0.0342361 0 0 0 0 0.483333 0 0 0 0.13 0"/>
<feBlend mode="normal" in2="BackgroundImageFix" result="effect1_dropShadow_1449_1323"/>
<feBlend mode="normal" in="SourceGraphic" in2="effect1_dropShadow_1449_1323" result="shape"/>
</filter>
<linearGradient id="paint0_linear_1449_1323" x1="-116.083" y1="-156.5" x2="1128.65" y2="339.045" gradientUnits="userSpaceOnUse">
<stop stop-color="#8EFFF1"/>
<stop offset="1" stop-color="#CAA0FF"/>
</linearGradient>
<linearGradient id="paint1_linear_1449_1323" x1="707.672" y1="665.594" x2="10.7343" y2="45.1719" gradientUnits="userSpaceOnUse">
<stop stop-color="#9FFDF9"/>
<stop offset="1" stop-color="#C3B0FF"/>
</linearGradient>
<linearGradient id="paint2_linear_1449_1323" x1="707.672" y1="665.594" x2="10.7343" y2="45.1719" gradientUnits="userSpaceOnUse">
<stop stop-color="#9FFDF9"/>
<stop offset="1" stop-color="#C3B0FF"/>
</linearGradient>
<linearGradient id="paint3_linear_1449_1323" x1="707.672" y1="665.594" x2="10.7343" y2="45.1719" gradientUnits="userSpaceOnUse">
<stop stop-color="#9FFDF9"/>
<stop offset="1" stop-color="#C3B0FF"/>
</linearGradient>
<clipPath id="clip0_1449_1323">
<rect width="700" height="700" fill="white"/>
</clipPath>
</defs>
</svg>
